<svg id="Calque_1" data-name="Calque 1" xmlns="http://www.w3.org/2000/svg" viewBox="0 0 640 480.75"><defs><style>.cls-1{fill:#32312f;}.cls-2{fill:#f6f6f6;}.cls-3{fill:#0dc5a0;}</style></defs><rect class="cls-1" y="0.38" width="640" height="480"/><path class="cls-2" d="M200.15,356.13a43.14,43.14,0,0,1-22.69,6.49c-24.41,0-44.27-20.34-44.27-45.35A45.32,45.32,0,0,1,164,274.08a220.71,220.71,0,0,1-1.3-83.27h-6.16a7.43,7.43,0,0,0-7.21,5.95l-4.12,19.44a101.28,101.28,0,0,0-14.73,6.26l-16.34-10.77a7.25,7.25,0,0,0-9.21,1L75.38,243a7.68,7.68,0,0,0-1,9.43l10.5,16.74a107.25,107.25,0,0,0-6.1,15.09l-19,4.22A7.53,7.53,0,0,0,54,295.86v42.83a7.52,7.52,0,0,0,5.81,7.38l19,4.23a107.62,107.62,0,0,0,6.1,15.08l-10.5,16.74a7.68,7.68,0,0,0,1,9.43l29.56,30.29a7.26,7.26,0,0,0,9.21,1l16.34-10.76a103.53,103.53,0,0,0,14.73,6.26l4.12,19.43a7.43,7.43,0,0,0,7.21,6h41.81a7.42,7.42,0,0,0,7.21-6l4.13-19.43a103.53,103.53,0,0,0,14.73-6.26l16.34,10.76a7.24,7.24,0,0,0,9.2-1l9.67-9.91A212,212,0,0,1,200.15,356.13Z" transform="translate(0 0.38)"/><path class="cls-3" d="M326.24,425.62c-95.78.3-173.66-79-174-177.1S229.41,70.63,325.18,70.33h1.12c95.78-.29,173.66,79,174,177.11s-77.12,177.88-172.9,178.18Zm-1-345.14c-90.47.3-163.57,75.67-163.28,168.34S235.83,416.37,326.3,416.07s163.57-75.66,163.28-168.33c-.29-92.25-73.22-167-163.28-167.26Z" transform="translate(0 0.38)"/><path class="cls-3" d="M326.24,425.62c-95.78.3-173.66-79-174-177.1S229.41,70.63,325.18,70.33h1.12c95.78-.29,173.66,79,174,177.11s-77.12,177.88-172.9,178.18Zm-1-345.14c-90.47.3-163.57,75.67-163.28,168.34S235.83,416.37,326.3,416.07s163.57-75.66,163.28-168.33c-.29-92.25-73.22-167-163.28-167.26Z" transform="translate(0 0.38)"/><path class="cls-3" d="M327.08,425.62c-47.11,0-84.44-77.66-85-177.1C241.43,148.91,278,70.64,325.18,70.33h.28c47.1,0,84.43,77.66,85,177.1.61,99.61-35.91,177.88-83.15,178.19ZM325.24,80.48c-40.28.26-73.83,77.19-73.29,168,.55,90.63,34.95,167,75.14,167h.2c40.29-.26,73.83-77.19,73.3-168s-34.95-167-75.14-167Z" transform="translate(0 0.38)"/><path class="cls-3" d="M327.32,425.62a5,5,0,0,1-4.95-5.05L320.26,75.44a5,5,0,0,1,4.92-5.11h0a5,5,0,0,1,5,5l2.11,345.13a5,5,0,0,1-4.93,5.11h0Z" transform="translate(0 0.38)"/><path class="cls-3" d="M157.8,254.13a5.08,5.08,0,0,1,0-10.15l336.93-2.17h0a5.08,5.08,0,0,1,0,10.15l-336.93,2.17Z" transform="translate(0 0.38)"/><path class="cls-3" d="M183.88,345.33a5.08,5.08,0,0,1,0-10.15l285.89-1.84h0a5.08,5.08,0,0,1,0,10.15l-285.9,1.84Z" transform="translate(0 0.38)"/><path class="cls-3" d="M182.77,162.61a5.08,5.08,0,0,1,0-10.15l285.89-1.84h0a5.08,5.08,0,0,1,0,10.15l-285.9,1.84Z" transform="translate(0 0.38)"/><path class="cls-3" d="M345,456.37a263.33,263.33,0,0,0,41.61-13,274.1,274.1,0,0,0,38.83-19.48,281.87,281.87,0,0,0,66.71-56.13,274.47,274.47,0,0,0,26.08-35.31c1-1.53,1.89-3.08,2.81-4.63a.37.37,0,0,0-.64-.38A273.72,273.72,0,0,1,495,363.26a280.68,280.68,0,0,1-65.54,57.25,275.17,275.17,0,0,1-38.38,20.18A262.88,262.88,0,0,1,350,454.43c-1.73.42-3.46.83-5.19,1.21-.47.11-.27.83.2.73Z" transform="translate(0 0.38)"/><path class="cls-3" d="M378,480.36a262.41,262.41,0,0,0,41.62-13,275.17,275.17,0,0,0,38.83-19.48,281.51,281.51,0,0,0,66.71-56.12,275.86,275.86,0,0,0,26.08-35.31c.95-1.54,1.89-3.08,2.81-4.64.25-.41-.4-.79-.65-.38A274.7,274.7,0,0,1,528,387.26a281.29,281.29,0,0,1-65.54,57.25,275.11,275.11,0,0,1-38.38,20.17A263.26,263.26,0,0,1,383,478.43q-2.59.63-5.2,1.21c-.47.1-.27.83.2.72Z" transform="translate(0 0.38)"/><path class="cls-3" d="M423.54,442.14a266.94,266.94,0,0,0,37.54-22.65,278.48,278.48,0,0,0,33.2-28.15,287,287,0,0,0,52.12-70.61,279.15,279.15,0,0,0,17.24-40.45c.59-1.76,1.17-3.53,1.72-5.3.15-.46-.58-.66-.72-.2a277.11,277.11,0,0,1-16.54,41A285.86,285.86,0,0,1,497.49,387a279.86,279.86,0,0,1-32.82,28.9,267,267,0,0,1-36.79,23.16c-1.56.82-3.14,1.62-4.72,2.4-.43.21-.05.86.38.65Z" transform="translate(0 0.38)"/><path class="cls-3" d="M368.6,30.1a261.87,261.87,0,0,0-42.93,3.81,270.52,270.52,0,0,0-42.29,10.85,277.77,277.77,0,0,0-76.74,40.77,271.56,271.56,0,0,0-32.56,28.9q-1.89,2-3.75,4c-.33.35.2.88.53.53a270.05,270.05,0,0,1,31.91-29.51,277.41,277.41,0,0,1,75.89-42.22,272.55,272.55,0,0,1,41.5-11.56,261.36,261.36,0,0,1,43-4.73q2.7-.07,5.4-.09a.38.38,0,0,0,0-.75Z" transform="translate(0 0.38)"/><path class="cls-3" d="M341.22-.38a263,263,0,0,0-42.93,3.81A271.63,271.63,0,0,0,256,14.28a277.45,277.45,0,0,0-76.74,40.78A269.83,269.83,0,0,0,146.7,84c-1.26,1.31-2.51,2.65-3.75,4-.32.35.21.89.53.53A271,271,0,0,1,175.4,59,275.75,275.75,0,0,1,292.78,5.2a261.37,261.37,0,0,1,43-4.74c1.8-.05,3.6-.07,5.4-.08a.38.38,0,0,0,0-.76Z" transform="translate(0 0.38)"/><path class="cls-3" d="M288.89,27.32a264.24,264.24,0,0,0-41,14.06A274.31,274.31,0,0,0,209.42,62a281.93,281.93,0,0,0-65.29,58A274,274,0,0,0,119,156q-1.36,2.34-2.68,4.69a.38.38,0,0,0,.65.38,274,274,0,0,1,24.47-36.55,281.79,281.79,0,0,1,64.08-59.08,276.53,276.53,0,0,1,37.71-21.14A262.82,262.82,0,0,1,283.94,29.4q2.56-.7,5.15-1.35a.38.38,0,0,0-.2-.73Z" transform="translate(0 0.38)"/></svg>